<svg width="40" height="40" viewBox="0 0 40 40" fill="none" xmlns="http://www.w3.org/2000/svg">
<path d="M34 4.5C34 3.66875 33.3312 3 32.5 3H26.1375C25.3063 3 24.6375 3.66875 24.6375 4.5C24.6375 5.33125 25.3063 6 26.1375 6H28.8813L21.925 12.9563L15.9812 7.8625C15.4187 7.38125 14.5938 7.38125 14.0312 7.8625L7.03125 13.8625C6.4 14.4 6.33125 15.35 6.86875 15.975C7.40625 16.6 8.35625 16.675 8.98125 16.1375L15.0063 10.975L21.0312 16.1375C21.625 16.65 22.5125 16.6125 23.0688 16.0562L31.0063 8.11875V10.8625C31.0063 11.6938 31.675 12.3625 32.5062 12.3625C33.3375 12.3625 34.0062 11.6938 34.0062 10.8625L34 4.5ZM7 20C5.34375 20 4 21.3438 4 23V33C4 34.6562 5.34375 36 7 36H33C34.6562 36 36 34.6562 36 33V23C36 21.3438 34.6562 20 33 20H7ZM9.95625 23.5C9.74375 24.7563 8.75625 25.75 7.49375 25.9625C7.21875 26.0063 6.99375 25.7812 6.99375 25.5063V23.5063C6.99375 23.2313 7.21875 23.0063 7.49375 23.0063H9.49375C9.76875 23.0063 10 23.2313 9.95 23.5063L9.95625 23.5ZM9.95625 32.5062C10 32.7812 9.775 33.0062 9.5 33.0062H7.5C7.225 33.0062 7 32.7812 7 32.5062V30.5063C7 30.2313 7.225 30 7.5 30.05C8.75625 30.2625 9.75 31.25 9.9625 32.5125L9.95625 32.5062ZM32.5 30.0438C32.775 30 33 30.225 33 30.5V32.5C33 32.775 32.775 33 32.5 33H30.5C30.225 33 29.9938 32.775 30.0438 32.5C30.2563 31.2437 31.2437 30.25 32.5062 30.0375L32.5 30.0438ZM30.0438 23.5C30 23.225 30.225 23 30.5 23H32.5C32.775 23 33 23.225 33 23.5V25.5C33 25.775 32.775 26.0062 32.5 25.9562C31.2437 25.7437 30.25 24.7563 30.0375 23.4937L30.0438 23.5ZM16 28C16 25.7938 17.7937 24 20 24C22.2062 24 24 25.7938 24 28C24 30.2062 22.2062 32 20 32C17.7937 32 16 30.2062 16 28Z" fill="#1255CA"/>
</svg>
